<?xml version="1.0" standalone="no"?><!DOCTYPE svg PUBLIC "-//W3C//DTD SVG 1.1//EN" "http://www.w3.org/Graphics/SVG/1.1/DTD/svg11.dtd"><svg t="1742609651080" class="icon" viewBox="0 0 1024 1024" version="1.1" xmlns="http://www.w3.org/2000/svg" p-id="1330" xmlns:xlink="http://www.w3.org/1999/xlink" width="24" height="24"><path d="M630.3744 746.752H373.4528l-31.2832 124.4672A99.4816 99.4816 0 0 1 245.76 946.432a99.4304 99.4304 0 0 1-94.976-128.9216L343.3984 196.9152a169.6768 169.6768 0 0 1 161.9968-119.3472 169.728 169.728 0 0 1 162.048 119.3472L860.16 817.5104a99.4304 99.4304 0 0 1-94.976 128.9216h-7.0144a99.4816 99.4816 0 0 1-96.4608-75.2128z m-39.68-161.1776L572.0064 512c-23.3984-86.4256-45.568-167.168-68.9152-256h-4.6592c-21.0432 91.0848-44.3904 169.5232-66.56 256l-18.688 73.5744z" fill="#7F88BA" p-id="1331"></path><path d="M457.5232 651.3664c-14.5408-23.7056-19.3024-44.9536-17.2032-65.792h-27.136L431.8208 512c21.1968-82.432 43.3664-157.696 63.6416-243.456a346.9824 346.9824 0 0 1-28.928-67.8912c-16.3328-55.2448 11.6736-95.8976 44.1344-122.88h-5.12a169.6768 169.6768 0 0 0-162.1504 119.1424L150.7328 817.5104A99.4304 99.4304 0 0 0 245.76 946.432a99.4816 99.4816 0 0 0 96.4608-75.2128l31.2832-124.4672h150.9376c-17.152-30.3616-43.6224-57.4976-66.9184-95.3856zM540.928 397.3632c7.7824-33.3312-6.1952-60.7744-25.1392-93.3888 8.448 31.6416 16.6912 62.5664 25.1392 93.3888z" fill="#5C6791" p-id="1332"></path><path d="M765.1328 956.672h-7.0144a109.5168 109.5168 0 0 1-106.3424-82.944l-29.3888-116.736H381.44l-29.3376 116.736a109.7216 109.7216 0 1 1-211.1488-59.2896l27.5456-88.6784a10.24 10.24 0 1 1 19.5584 6.0928l-27.5456 88.6784a89.1904 89.1904 0 1 0 171.7248 48.1792L363.52 744.2432a10.24 10.24 0 0 1 9.9328-7.7312h256.9216a10.24 10.24 0 0 1 9.9328 7.7312l31.2832 124.4672a89.1392 89.1392 0 0 0 86.528 67.4816h7.0144a89.1904 89.1904 0 0 0 85.1968-115.6608l-140.6464-453.0688a10.24 10.24 0 0 1 19.5584-6.0928l140.6464 453.0688a109.7216 109.7216 0 0 1-104.7552 142.2336zM216.3712 616.2432a10.5472 10.5472 0 0 1-3.0208-0.4608 10.24 10.24 0 0 1-6.7584-12.8512l127.0272-409.0368a179.8656 179.8656 0 0 1 343.6032 0l15.9232 51.2a10.24 10.24 0 0 1-6.7584 12.8 10.24 10.24 0 0 1-12.8-6.7584l-15.9232-51.2a159.4368 159.4368 0 0 0-304.4864 0L226.1504 609.28a10.24 10.24 0 0 1-9.7792 6.9632z m374.272-20.48H413.1328a10.24 10.24 0 0 1-8.0384-3.9424 10.24 10.24 0 0 1-1.8432-8.8064l18.688-73.5744c8.1408-31.744 16.5376-62.8736 24.6784-92.928C460.8 364.8 475.136 311.296 488.448 253.7472A10.24 10.24 0 0 1 498.432 245.76h4.6592a10.24 10.24 0 0 1 9.8816 7.6288c17.152 65.0752 33.3312 124.7232 50.432 187.8016l18.4832 68.096 18.688 73.728a10.24 10.24 0 0 1-1.8432 8.8064 10.24 10.24 0 0 1-8.0896 3.9936z m-164.3008-20.48h151.1424l-15.36-60.8256-18.432-67.8912c-14.4384-53.2992-28.2112-104.0384-42.496-157.7472-11.264 46.4384-23.1936 90.3168-34.7136 133.12-8.1408 30.0544-16.5376 61.0816-24.6784 92.672z" fill="#231815" p-id="1333"></path><path d="M486.7072 446.6688a22.272 22.272 0 0 1 35.2768 0c18.5856 24.064 33.7408 64.9728 41.8816 79.36 10.5984 18.688 40.96 61.7472 140.288 41.7792s99.1744-72.96 101.6832-109.7216a60.416 60.416 0 0 1 25.6-46.7456 12.2368 12.2368 0 0 0 5.12-10.24v-24.064a12.288 12.288 0 0 0-13.2096-12.2368 128.7168 128.7168 0 0 1-54.7328-7.3216c-34.304-13.1072-111.616-18.688-156.5184 0s-85.4016 15.36-107.52 15.36-62.6176 3.1232-107.52-15.36-122.2144-13.1072-156.5184 0a128.7168 128.7168 0 0 1-54.7328 7.3216 12.2368 12.2368 0 0 0-13.2096 12.2368v24.064a12.2368 12.2368 0 0 0 5.12 10.24 60.416 60.416 0 0 1 25.344 46.7456c2.5088 36.7616 2.5088 89.7536 101.632 109.7216s129.6896-23.0912 140.288-41.7792c7.9872-14.3872 23.0912-55.296 41.728-79.36z" fill="#E8B5B2" p-id="1334"></path><path d="M394.496 566.8352C344.2688 507.136 337.92 407.1424 413.184 397.3632a141.3632 141.3632 0 0 0 62.6688-24.0128 214.6816 214.6816 0 0 1-79.0528-15.6672c-44.9024-18.688-122.2144-13.1072-156.5184 0a128.7168 128.7168 0 0 1-54.7328 7.3216 12.2368 12.2368 0 0 0-13.2096 12.2368v24.064a12.2368 12.2368 0 0 0 5.12 10.24 60.416 60.416 0 0 1 25.344 46.7456c2.5088 36.7616 2.5088 89.7536 101.632 109.7216 40.2432 7.8848 69.3248 5.4272 90.0608-1.1776z" fill="#D69896" p-id="1335"></path><path d="M425.472 411.3408C396.6464 399.36 327.1168 370.7392 261.12 395.2128c-37.0176 14.9504-36.4544 105.728 33.4336 128.4608S391.424 527.36 414.72 495.5648s43.3664-70.3488 10.752-84.224z" fill="#B28AE4" p-id="1336"></path><path d="M398.4896 400.7936c-34.816-12.2368-87.04-24.2176-137.3184-5.5808-37.0176 14.9504-36.4544 105.728 33.4336 128.4608 34.4576 11.1616 58.4192 12.1856 76.8 6.5536-24.4224-52.1728-20.6336-113.2032 27.0848-129.4336z" fill="#9675CC" p-id="1337"></path><path d="M353.28 583.2192a10.24 10.24 0 0 1 0-20.48c59.2384-0.4608 76.8-31.5392 82.5856-41.7792 2.3552-4.096 5.5296-11.1104 9.2672-19.2 8.3968-18.5344 19.968-43.8784 33.4336-61.44a32.5632 32.5632 0 0 1 51.5072 0c13.5168 17.5104 25.0368 42.8544 33.4848 61.44 3.6864 8.0896 6.912 15.36 9.216 19.2 21.1968 37.4272 64.7168 49.8176 129.3824 36.8128 88.1152-17.7152 90.9312-61.44 93.184-96.5632v-3.84a70.656 70.656 0 0 1 29.696-54.4256 1.9968 1.9968 0 0 0 0.8192-1.6384v-24.064a2.2528 2.2528 0 0 0-0.6144-1.4848 2.1504 2.1504 0 0 0-1.5872-0.512 139.2128 139.2128 0 0 1-59.1872-7.9872 184.32 184.32 0 0 0-39.7824-8.8576 10.24 10.24 0 1 1 2.5088-20.48 198.9632 198.9632 0 0 1 44.8512 10.24 119.0912 119.0912 0 0 0 50.3296 6.7072 22.4768 22.4768 0 0 1 24.2176 22.4256v24.064a22.3232 22.3232 0 0 1-9.5232 18.4832 50.3808 50.3808 0 0 0-21.0432 39.0656v3.7376c-2.4064 37.632-6.0928 94.5152-109.568 115.3536-73.2672 14.7456-125.5424-1.4336-151.2448-46.7456-2.7648-5.12-6.144-12.288-10.24-20.8896-7.9872-17.5616-18.9952-41.6768-31.0272-57.2928a12.032 12.032 0 0 0-19.0976 0c-12.032 15.616-23.04 39.7312-31.0272 57.2928-3.9424 8.6016-7.2704 15.9744-10.24 20.8896-19.3536 34.2016-53.0944 51.712-100.2496 52.1216z" fill="#231815" p-id="1338"></path><path d="M304.5376 578.048a8.96 8.96 0 0 1-2.048 0 256.256 256.256 0 0 1-25.088-6.2976c-79.0528-24.3712-82.3296-75.3152-84.48-109.056v-3.7376A50.5344 50.5344 0 0 0 171.6224 419.84a22.3232 22.3232 0 0 1-9.5232-18.3808v-24.064a22.4768 22.4768 0 0 1 24.2176-22.4256A118.272 118.272 0 0 0 236.6464 348.16c35.84-13.6192 115.3536-20.1728 164.096 0 37.7344 15.7696 72.2432 15.36 95.0784 14.8992h16.9984c22.8864 0.3584 57.3952 0.8704 95.1296-14.8992a173.0048 173.0048 0 0 1 47.4112-11.1104 10.24 10.24 0 1 1 2.2016 20.48 151.6032 151.6032 0 0 0-41.7792 9.7792c-41.6768 17.3568-80.2816 16.7424-103.2704 16.4352h-16.4352c-23.04 0.3584-61.44 0.9216-103.2704-16.4352-42.752-17.8176-117.76-11.7248-148.9408 0a138.9056 138.9056 0 0 1-59.136 7.9872 2.1504 2.1504 0 0 0-1.5872 0.512 1.9968 1.9968 0 0 0-0.6144 1.4848v24.064a1.8432 1.8432 0 0 0 0.8192 1.6384 70.656 70.656 0 0 1 29.696 54.4256l0.256 3.84c2.0992 33.0752 4.5568 70.5536 70.0928 90.7776a230.4 230.4 0 0 0 23.0912 5.7856 10.24 10.24 0 0 1-1.9968 20.48z" fill="#231815" p-id="1339"></path><path d="M582.656 410.7776c28.9792-12.3392 98.9696-40.96 165.376-16.2304 37.2736 15.0016 36.6592 106.4448-33.6896 129.28s-97.28 3.584-120.8832-28.2624-43.6224-70.6048-10.8032-84.7872z" fill="#B28AE4" p-id="1340"></path><path d="M347.2896 543.744a183.1424 183.1424 0 0 1-55.808-10.24 93.7984 93.7984 0 0 1-64.8704-87.04c-1.024-28.9792 11.0592-52.8384 30.72-60.7744 71.68-26.5728 147.2512 5.5808 172.1344 16.1792a35.84 35.84 0 0 1 21.9648 23.552c5.12 18.3808-4.3008 43.3152-28.4672 76.1856-18.4832 25.1904-39.8848 42.1376-75.6736 42.1376zM317.44 395.7248a150.6816 150.6816 0 0 0-52.7872 9.1136c-11.1616 4.5056-18.3808 20.992-17.7152 40.96a72.5504 72.5504 0 0 0 50.7392 68.0448c67.6864 22.016 89.2928 1.9968 108.6976-24.3712 26.1632-35.84 27.0336-52.0192 25.1904-58.624a15.36 15.36 0 0 0-10.24-10.24c-18.2784-7.68-58.7264-24.8832-103.8848-24.8832zM661.3504 543.9488c-35.84 0-57.4976-17.0496-76.1344-42.3424-24.32-33.0752-33.6896-58.112-28.672-76.8a35.84 35.84 0 0 1 22.016-23.4496c25.0368-10.6496 101.2224-43.0592 172.9536-16.4352 20.0192 8.0896 32.1536 32.1024 31.1808 61.44a94.464 94.464 0 0 1-65.28 87.3472 184.32 184.32 0 0 1-56.064 10.24z m-78.6944-133.12l3.9936 9.4208a15.36 15.36 0 0 0-10.24 10.24c-1.792 6.656-0.9216 23.1936 25.6 59.0336 19.5072 26.5728 41.2672 46.7456 109.4144 24.6272a73.1648 73.1648 0 0 0 51.2-68.608c0.7168-20.1728-6.6048-36.8128-18.1248-41.472-63.7952-23.7056-131.8912 5.12-157.5424 16.1792z" fill="#231815" p-id="1341"></path><path d="M422.656 661.6064a29.5424 22.1184 0 1 0 59.0848 0 29.5424 22.1184 0 1 0-59.0848 0Z" fill="#FF8E9E" p-id="1342"></path><path d="M529.1008 661.6064a29.5424 22.1184 0 1 0 59.0848 0 29.5424 22.1184 0 1 0-59.0848 0Z" fill="#FF8E9E" p-id="1343"></path><path d="M480.9728 682.2912a24.4224 13.3632 0 1 0 48.8448 0 24.4224 13.3632 0 1 0-48.8448 0Z" p-id="1344"></path><path d="M543.4368 634.88m-15.872 0a15.872 15.872 0 1 0 31.744 0 15.872 15.872 0 1 0-31.744 0Z" p-id="1345"></path><path d="M470.2208 634.88m-15.872 0a15.872 15.872 0 1 0 31.744 0 15.872 15.872 0 1 0-31.744 0Z" p-id="1346"></path></svg>