<?xml version="1.0" standalone="no"?><!DOCTYPE svg PUBLIC "-//W3C//DTD SVG 1.1//EN" "http://www.w3.org/Graphics/SVG/1.1/DTD/svg11.dtd"><svg t="1742609968091" class="icon" viewBox="0 0 1024 1024" version="1.1" xmlns="http://www.w3.org/2000/svg" p-id="2869" xmlns:xlink="http://www.w3.org/1999/xlink" width="24" height="24"><path d="M510.304 32C776.416 32 992 246.816 992 512c0 265.184-215.584 480-481.696 480C244.224 988.64 32 773.824 32 508.64S244.224 32 510.304 32z" fill="#E0E0E0" p-id="2870"></path><path d="M510.4 64C758.816 64 960 264.512 960 512s-201.216 448-449.6 448C262.08 956.864 64 756.352 64 508.864 64 261.376 262.08 64 510.4 64z" fill="#FFFFFF" p-id="2871"></path><path d="M512 96c231.104 0 416 184.896 416 416s-184.896 416-416 416S96 743.104 96 512 280.896 96 512 96z" fill="#237ED3" p-id="2872"></path><path d="M512 777.856c37.696 0 78.016-35.424 102.912-90.4 40.192 4.16 74.88-0.576 99.52-13.568a78.08 78.08 0 0 0 31.456-28.96c6.88-11.744 10.24-26.048 9.76-41.28-0.928-27.52-14.08-59.456-37.824-91.648 35.904-48.704 46.912-100.8 28.064-132.928a78.112 78.112 0 0 0-31.424-28.96c-24.672-12.992-59.36-17.728-99.552-13.568-24.896-54.976-65.216-90.4-102.912-90.4-37.696 0-78.016 35.424-102.912 90.4-40.192-4.16-74.88 0.576-99.52 13.568a78.112 78.112 0 0 0-31.424 28.96c-18.88 32.16-7.872 84.224 28.064 132.928-23.744 32.192-36.928 64.128-37.856 91.648-0.48 15.232 2.88 29.536 9.792 41.28 18.848 32.128 70.144 48.8 130.944 42.56 24.896 54.944 65.216 90.368 102.912 90.368z m0-415.296a428.992 428.992 0 0 0-75.36-21.952l2.336-4.704q17.376-33.696 39.04-50.336 17.056-13.12 33.984-13.12 16.96 0 33.984 13.12 21.664 16.64 39.04 50.336l2.336 4.704c-24.416 4.608-49.664 11.968-75.36 21.952z m-118.4-0.864l5.312 0.32c-8.16 23.168-14.304 48.352-18.368 75.264a421.12 421.12 0 0 0-57.024 53.28l-2.944-4.352q-20.96-31.68-24.768-58.464-3.008-21.088 5.44-35.52 8.48-14.4 28.544-22.4 25.472-10.176 63.808-8.128z m306.88 128.864a420.832 420.832 0 0 0-57.024-53.28 411.776 411.776 0 0 0-18.336-75.232l5.28-0.32q38.336-2.08 63.808 8.096 20.064 8 28.512 22.4 8.48 14.432 5.472 35.52-3.84 26.816-24.768 58.464l-2.944 4.352z m-120-95.36a531.52 531.52 0 0 0-33.024-17.248q26.24-8.416 50.528-12.544 8.48 22.752 14.208 49.344a528.864 528.864 0 0 0-31.68-19.52z m-154.464-29.792q24.288 4.16 50.528 12.544a531.52 531.52 0 0 0-64.736 36.8q5.728-26.56 14.208-49.344z m141.12 52.608q27.264 15.488 51.328 33.472 3.776 29.536 3.776 60.512t-3.776 60.512q-24.064 17.984-51.328 33.472-27.264 15.488-55.136 27.04-27.84-11.52-55.136-27.04-27.232-15.488-51.328-33.472-3.776-29.536-3.776-60.512t3.776-60.512q24.096-17.984 51.328-33.472 27.264-15.488 55.136-27.04 27.84 11.52 55.136 27.04zM512 555.296c24.32 0 44-19.392 44-43.296s-19.712-43.296-44-43.296c-24.32 0-44 19.392-44 43.296s19.712 43.296 44 43.296zM340.032 512q15.808-18.624 36.32-36.8a512.32 512.32 0 0 0 0 73.6q-20.512-18.176-36.32-36.8z m343.936 0q-15.776 18.624-36.32 36.8a513.216 513.216 0 0 0 0-73.6q20.544 18.176 36.32 36.8z m-360.448 21.44a421.12 421.12 0 0 0 57.024 53.28c4.064 26.88 10.208 52.096 18.368 75.232l-5.312 0.32q-38.304 2.08-63.808-8.096-20.064-8-28.512-22.4-8.48-14.432-5.44-35.52 3.776-26.816 24.736-58.464l2.944-4.352z m306.88 128.864l-5.28-0.32c8.128-23.168 14.272-48.384 18.336-75.264a420.8 420.8 0 0 0 57.024-53.28l2.944 4.352q20.96 31.68 24.768 58.464 3.008 21.088-5.44 35.52-8.48 14.4-28.544 22.4-25.472 10.176-63.808 8.128z m-82.944-16.256a532.448 532.448 0 0 0 64.736-36.8q-5.728 26.56-14.208 49.344-24.288-4.16-50.528-12.544z m-70.912 0q-26.24 8.416-50.528 12.544-8.48-22.752-14.208-49.344a529.056 529.056 0 0 0 64.736 36.8z m108.48 42.016q-17.376 33.728-39.04 50.368-17.056 13.12-33.984 13.12t-33.984-13.12q-21.664-16.64-39.04-50.368l-2.336-4.672A428.96 428.96 0 0 0 512 661.44c25.696 9.984 50.944 17.344 75.36 21.952l-2.336 4.672z" fill="#FFFFFF" p-id="2873"></path></svg>